<svg width="22" height="22" viewBox="0 0 22 22" fill="none" xmlns="http://www.w3.org/2000/svg">
<path d="M12 18C12.85 18 13.6667 17.8708 14.45 17.6125C15.2333 17.3542 15.9667 16.9833 16.65 16.5C15.9667 16.0167 15.2333 15.6458 14.45 15.3875C13.6667 15.1292 12.85 15 12 15C11.15 15 10.3333 15.1292 9.54999 15.3875C8.76665 15.6458 8.03332 16.0167 7.34999 16.5C8.03332 16.9833 8.76665 17.3542 9.54999 17.6125C10.3333 17.8708 11.15 18 12 18ZM14.65 9.8L13.225 8.375C13.3083 8.24167 13.375 8.1 13.425 7.95C13.475 7.8 13.5 7.65 13.5 7.5C13.5 7.08333 13.3542 6.72917 13.0625 6.4375C12.7708 6.14583 12.4167 6 12 6C11.85 6 11.7 6.025 11.55 6.075C11.4 6.125 11.2583 6.19167 11.125 6.275L9.69999 4.85C10.0167 4.56667 10.3708 4.35417 10.7625 4.2125C11.1542 4.07083 11.5667 4 12 4C12.9667 4 13.7917 4.34167 14.475 5.025C15.1583 5.70833 15.5 6.53333 15.5 7.5C15.5 7.93333 15.4292 8.34583 15.2875 8.7375C15.1458 9.12917 14.9333 9.48333 14.65 9.8ZM20.35 15.5L18.9 14.05C19.2667 13.4333 19.5417 12.7833 19.725 12.1C19.9083 11.4167 20 10.7167 20 10C20 7.76667 19.225 5.875 17.675 4.325C16.125 2.775 14.2333 2 12 2C11.2833 2 10.5833 2.09167 9.89999 2.275C9.21665 2.45833 8.56665 2.73333 7.94999 3.1L6.49999 1.65C7.31665 1.11667 8.19165 0.708333 9.12499 0.425C10.0583 0.141667 11.0167 0 12 0C13.3833 0 14.6833 0.2625 15.9 0.7875C17.1167 1.3125 18.175 2.025 19.075 2.925C19.975 3.825 20.6875 4.88333 21.2125 6.1C21.7375 7.31667 22 8.61667 22 10C22 10.9833 21.8583 11.9417 21.575 12.875C21.2917 13.8083 20.8833 14.6833 20.35 15.5ZM12 20C10.6167 20 9.31665 19.7375 8.09999 19.2125C6.88332 18.6875 5.82499 17.975 4.92499 17.075C4.02499 16.175 3.31249 15.1167 2.78749 13.9C2.26249 12.6833 1.99999 11.3833 1.99999 10C1.99999 9.01667 2.13749 8.05833 2.41249 7.125C2.68749 6.19167 3.09165 5.30833 3.62499 4.475L0.674988 1.5L2.09999 0.075L21.9 19.875L20.475 21.3L5.09999 5.95C4.73332 6.56667 4.45832 7.21667 4.27499 7.9C4.09165 8.58333 3.99999 9.28333 3.99999 10C3.99999 10.95 4.15832 11.8583 4.47499 12.725C4.79165 13.5917 5.24999 14.3833 5.84999 15.1C6.74999 14.4167 7.72082 13.8958 8.76249 13.5375C9.80416 13.1792 10.8833 13 12 13C12.6333 13 13.2667 13.0667 13.9 13.2C14.5333 13.3333 15.15 13.5167 15.75 13.75L19.075 17.075C18.125 18.025 17.0417 18.75 15.825 19.25C14.6083 19.75 13.3333 20 12 20Z" fill="#1C1B1F"/>
</svg>
