<svg width="22" height="20" viewBox="0 0 22 20" fill="none" xmlns="http://www.w3.org/2000/svg">
<path d="M9.9501 14.55L15.6001 8.89997L14.1751 7.47498L9.9501 11.7L7.8251 9.57498L6.4001 11L9.9501 14.55ZM11.0001 20C9.7501 20 8.57943 19.7626 7.4881 19.288C6.3961 18.8126 5.4461 18.1706 4.6381 17.362C3.82943 16.554 3.18743 15.604 2.7121 14.512C2.23743 13.4206 2.0001 12.25 2.0001 11C2.0001 9.74998 2.23743 8.57898 2.7121 7.48698C3.18743 6.39564 3.82943 5.44564 4.6381 4.63698C5.4461 3.82898 6.3961 3.18764 7.4881 2.71298C8.57943 2.23764 9.7501 1.99998 11.0001 1.99998C12.2501 1.99998 13.4211 2.23764 14.5131 2.71298C15.6044 3.18764 16.5544 3.82898 17.3631 4.63698C18.1711 5.44564 18.8128 6.39564 19.2881 7.48698C19.7628 8.57898 20.0001 9.74998 20.0001 11C20.0001 12.25 19.7628 13.4206 19.2881 14.512C18.8128 15.604 18.1711 16.554 17.3631 17.362C16.5544 18.1706 15.6044 18.8126 14.5131 19.288C13.4211 19.7626 12.2501 20 11.0001 20ZM4.6001 0.349976L6.0001 1.74998L1.7501 5.99998L0.350098 4.59998L4.6001 0.349976ZM17.4001 0.349976L21.6501 4.59998L20.2501 5.99998L16.0001 1.74998L17.4001 0.349976ZM11.0001 18C12.9501 18 14.6041 17.3206 15.9621 15.962C17.3208 14.604 18.0001 12.95 18.0001 11C18.0001 9.04998 17.3208 7.39564 15.9621 6.03698C14.6041 4.67898 12.9501 3.99998 11.0001 3.99998C9.0501 3.99998 7.3961 4.67898 6.0381 6.03698C4.67943 7.39564 4.0001 9.04998 4.0001 11C4.0001 12.95 4.67943 14.604 6.0381 15.962C7.3961 17.3206 9.0501 18 11.0001 18Z" fill="black"/>
</svg>
