<svg width="34" height="34" viewBox="0 0 34 34" fill="none" xmlns="http://www.w3.org/2000/svg">
<path d="M14.6666 24.6666L26.4166 12.9166L24.0833 10.5833L14.6666 19.9999L9.91659 15.2499L7.58325 17.5833L14.6666 24.6666ZM16.9999 33.6666C14.6944 33.6666 12.5277 33.2288 10.4999 32.3533C8.47214 31.4788 6.70825 30.2916 5.20825 28.7916C3.70825 27.2916 2.52103 25.5277 1.64659 23.4999C0.77103 21.4721 0.333252 19.3055 0.333252 16.9999C0.333252 14.6944 0.77103 12.5277 1.64659 10.4999C2.52103 8.47214 3.70825 6.70825 5.20825 5.20825C6.70825 3.70825 8.47214 2.52047 10.4999 1.64492C12.5277 0.770474 14.6944 0.333252 16.9999 0.333252C19.3055 0.333252 21.4721 0.770474 23.4999 1.64492C25.5277 2.52047 27.2916 3.70825 28.7916 5.20825C30.2916 6.70825 31.4788 8.47214 32.3533 10.4999C33.2288 12.5277 33.6666 14.6944 33.6666 16.9999C33.6666 19.3055 33.2288 21.4721 32.3533 23.4999C31.4788 25.5277 30.2916 27.2916 28.7916 28.7916C27.2916 30.2916 25.5277 31.4788 23.4999 32.3533C21.4721 33.2288 19.3055 33.6666 16.9999 33.6666Z" fill="black"/>
</svg>
