<svg width="96" height="96" viewBox="0 0 96 96" fill="none" xmlns="http://www.w3.org/2000/svg">
<path d="M44.2176 95.6898C11.0523 89.3663 6.1728 57.7816 5.21966 51.1233C5.05783 49.9898 4.84663 47.1121 4.8192 45.4434C4.63954 34.6915 3.79886 31.2868 3.408 30.2219C1.2096 35.7276 0 41.7368 0 48.0288C0 73.7428 20.1943 94.7361 45.5794 95.9986C45.1296 95.8819 44.6757 95.7776 44.219 95.6898H44.2176Z" fill="url(#paint0_linear_292_7131)"/>
<path d="M75.3656 8.56436C75.3505 8.56436 75.3354 8.56436 75.3217 8.55888C66.6885 5.63864 64.5217 8.86901 64.5217 8.86901C63.2558 10.7051 64.331 14.3897 65.6504 17.498C66.6748 19.9105 67.953 22.2091 69.4355 24.3704C91.9571 57.2025 81.5877 81.9861 81.3354 82.5775C81.3326 82.583 81.3299 82.5871 81.3272 82.5912C90.3731 73.8566 95.9987 61.5993 95.9987 48.0273C95.9987 31.6779 87.8346 17.2372 75.3642 8.56299L75.3656 8.56436Z" fill="url(#paint1_linear_292_7131)"/>
<path d="M73.1726 53.1159C67.5429 34.0356 58.3241 21.8812 58.3241 21.8812C50.4659 11.0813 54.262 3.52953 56.3232 0.720453C53.6201 0.247013 50.8389 1.25684e-07 48 1.25684e-07C28.8371 -0.00137217 12.2976 11.2349 4.60254 27.4829C6.04528 29.9475 6.13168 45.3487 6.13168 45.3487C6.19065 46.7567 6.29488 48.2621 6.43888 49.5891C8.88825 72.0933 25.7102 93.1662 50.2396 89.2346C50.2396 89.2346 52.9331 88.7392 54.0631 88.4853C68.891 85.1671 73.2864 75.0437 74.326 66.9472C74.9212 62.3102 74.496 57.5992 73.1726 53.1145V53.1159ZM58.8755 69.6863L52.1541 73.8046C51.7879 74.0296 51.3257 74.0214 50.9664 73.7853C45.4368 70.1529 36.1303 61.8162 28.8713 47.6734C25.2741 40.6651 22.8041 34.2222 21.4793 28.9691C17.3609 33.123 14.7278 37.0889 13.3646 39.4108C12.886 40.2246 11.6695 40.1038 11.3651 39.2091C9.91545 34.9564 9.55202 31.619 9.46837 30.5403C9.45054 30.3043 9.50814 30.0669 9.63431 29.8652C21.8606 10.4308 40.0649 6.587 44.0585 5.96398C44.5276 5.89125 44.9911 6.12591 45.2105 6.54857L48.5075 12.894C48.8435 13.5418 48.4732 14.3322 47.7614 14.4873C41.2361 15.9021 35.7285 18.3571 31.1424 21.2266C32.0805 26.9738 34.6437 35.4449 39.2654 44.3826C45.7152 56.8568 54.4128 64.9396 58.8933 67.8063C59.5831 68.2482 59.5749 69.2582 58.8768 69.6863H58.8755Z" fill="url(#paint2_linear_292_7131)"/>
<defs>
<linearGradient id="paint0_linear_292_7131" x1="4.51053" y1="22.6849" x2="62.7212" y2="100.02" gradientUnits="userSpaceOnUse">
<stop offset="0.110647" stop-color="#68DBA4"/>
<stop offset="0.780329" stop-color="#17603D"/>
</linearGradient>
<linearGradient id="paint1_linear_292_7131" x1="67.1276" y1="-1.28624" x2="135.028" y2="54.1426" gradientUnits="userSpaceOnUse">
<stop offset="0.110647" stop-color="#68DBA4"/>
<stop offset="0.780329" stop-color="#17603D"/>
</linearGradient>
<linearGradient id="paint2_linear_292_7131" x1="11.5284" y1="-10.2795" x2="87.8733" y2="103.911" gradientUnits="userSpaceOnUse">
<stop offset="0.110647" stop-color="#68DBA4"/>
<stop offset="0.780329" stop-color="#17603D"/>
</linearGradient>
</defs>
</svg>
