<svg width="482" height="50" viewBox="0 0 482 50" fill="none" xmlns="http://www.w3.org/2000/svg">
<path d="M42.896 14.984H33.264V10.616H29.68V35.816H33.6V45H10.08V35.816H14V10.616H10.416V14.984H0.784V1.432H42.896V14.984ZM44.8153 45V35.816H47.6153V10.616H44.8153V1.432H82.6153V18.344H70.0713V10.616H63.2953V19.464H68.2233V25.848H63.2953V35.816H70.0713V26.968H82.6153V45H44.8153ZM116.993 1.432H135.361V10.616H132.561V45H116.825L100.417 19.744V35.816H103.105V45H84.7372V35.816H87.5372V10.616H84.7372V1.432H104.953L119.681 23.888V10.616H116.993V1.432ZM169.767 1.432H188.135V10.616H185.335V45H169.599L153.191 19.744V35.816H155.879V45H137.511V35.816H140.311V10.616H137.511V1.432H157.727L172.455 23.888V10.616H169.767V1.432ZM190.284 45V35.816H193.084V10.616H190.284V1.432H211.564V10.616H208.764V35.816H211.564V45H190.284ZM231.16 45.784C227.576 45.784 224.178 45.4853 220.968 44.888C217.794 44.2533 215.349 43.544 213.632 42.76V31.672H225.952C225.952 32.8293 226.213 33.6693 226.736 34.192C227.258 34.7147 228.21 34.976 229.592 34.976C230.749 34.976 231.57 34.808 232.056 34.472C232.578 34.0987 232.84 33.5573 232.84 32.848C232.84 32.2507 232.597 31.7467 232.112 31.336C231.626 30.888 230.786 30.44 229.592 29.992L224.776 28.312C220.632 26.744 217.645 24.896 215.816 22.768C214.024 20.64 213.128 17.7653 213.128 14.144C213.128 9.73867 214.565 6.39733 217.44 4.12C220.352 1.80533 225.186 0.647997 231.944 0.647997C235.192 0.647997 238.234 0.983997 241.072 1.656C243.946 2.29066 246.261 3.14933 248.016 4.232V14.256H236.816C236.816 12.3893 235.658 11.456 233.344 11.456C232.224 11.456 231.421 11.6053 230.936 11.904C230.488 12.1653 230.264 12.6507 230.264 13.36C230.264 13.9947 230.525 14.4987 231.048 14.872C231.608 15.2453 232.504 15.6373 233.736 16.048L238.608 17.728C242.565 19.072 245.44 20.8267 247.232 22.992C249.061 25.12 249.976 27.92 249.976 31.392C249.976 36.1333 248.37 39.7173 245.16 42.144C241.986 44.5707 237.32 45.784 231.16 45.784ZM285.683 45.784C282.099 45.784 278.702 45.4853 275.491 44.888C272.318 44.2533 269.872 43.544 268.155 42.76V31.672H280.475C280.475 32.8293 280.736 33.6693 281.259 34.192C281.782 34.7147 282.734 34.976 284.115 34.976C285.272 34.976 286.094 34.808 286.579 34.472C287.102 34.0987 287.363 33.5573 287.363 32.848C287.363 32.2507 287.12 31.7467 286.635 31.336C286.15 30.888 285.31 30.44 284.115 29.992L279.299 28.312C275.155 26.744 272.168 24.896 270.339 22.768C268.547 20.64 267.651 17.7653 267.651 14.144C267.651 9.73867 269.088 6.39733 271.963 4.12C274.875 1.80533 279.71 0.647997 286.467 0.647997C289.715 0.647997 292.758 0.983997 295.595 1.656C298.47 2.29066 300.784 3.14933 302.539 4.232V14.256H291.339C291.339 12.3893 290.182 11.456 287.867 11.456C286.747 11.456 285.944 11.6053 285.459 11.904C285.011 12.1653 284.787 12.6507 284.787 13.36C284.787 13.9947 285.048 14.4987 285.571 14.872C286.131 15.2453 287.027 15.6373 288.259 16.048L293.131 17.728C297.088 19.072 299.963 20.8267 301.755 22.992C303.584 25.12 304.499 27.92 304.499 31.392C304.499 36.1333 302.894 39.7173 299.683 42.144C296.51 44.5707 291.843 45.784 285.683 45.784ZM349.402 49.368C341.487 49.368 335.14 49.1253 330.362 48.64C325.62 48.1547 321.532 47.1093 318.098 45.504C314.663 43.936 311.788 41.5653 309.474 38.392C306.972 34.7707 305.722 29.712 305.722 23.216C305.722 15.6373 307.588 9.98133 311.322 6.248C315.092 2.51466 320.356 0.647997 327.114 0.647997C333.834 0.647997 339.079 2.30933 342.85 5.632C346.62 8.91733 348.506 13.8453 348.506 20.416C348.506 23.2533 348.039 25.9227 347.106 28.424C346.21 30.888 344.642 33.1653 342.402 35.256L342.682 35.816H349.402V49.368ZM327.114 35.816C329.652 35.816 330.922 34.4347 330.922 31.672V14.76C330.922 11.9973 329.652 10.616 327.114 10.616C324.575 10.616 323.306 11.9973 323.306 14.76V31.672C323.306 34.4347 324.575 35.816 327.114 35.816ZM372.337 45.784C366.476 45.784 361.94 44.496 358.729 41.92C355.556 39.344 353.969 35.1627 353.969 29.376V10.616H351.169V1.432H371.889V10.616H369.649V32.232C369.649 33.464 369.911 34.3787 370.433 34.976C370.993 35.536 371.815 35.816 372.897 35.816C373.98 35.816 374.783 35.536 375.305 34.976C375.865 34.3787 376.145 33.464 376.145 32.232V10.616H373.905V1.432H393.113V10.616H390.313V29.376C390.313 35.1627 388.764 39.344 385.665 41.92C382.567 44.496 378.124 45.784 372.337 45.784ZM434.005 35.816H436.245V45H414.293V35.816H417.653L416.757 31.336H409.141L408.245 35.816H411.605V45H392.453V35.816H394.693L404.157 1.432H424.541L434.005 35.816ZM410.373 25.4H415.525L413.229 14.256H412.669L410.373 25.4ZM438.018 35.816H440.818V10.672H438.018V1.432H460.754C466.989 1.432 471.936 3.14933 475.594 6.584C479.29 9.98133 481.138 15.5253 481.138 23.216C481.138 30.9067 479.29 36.4693 475.594 39.904C471.936 43.3013 466.989 45 460.754 45H438.018V35.816ZM459.746 35.816C461.016 35.816 461.968 35.48 462.602 34.808C463.237 34.136 463.554 33.0907 463.554 31.672V14.76C463.554 11.9973 462.285 10.616 459.746 10.616H456.498V35.816H459.746Z" fill="#218957"/>
</svg>
