<svg width="190" height="20" viewBox="0 0 190 20" fill="none" xmlns="http://www.w3.org/2000/svg">
<path d="M16.852 6.208H13.068V4.492H11.66V14.392H13.2V18H3.96V14.392H5.5V4.492H4.092V6.208H0.308V0.883999H16.852V6.208ZM17.606 18V14.392H18.706V4.492H17.606V0.883999H32.456V7.528H27.528V4.492H24.866V7.968H26.802V10.476H24.866V14.392H27.528V10.916H32.456V18H17.606ZM45.9616 0.883999H53.1776V4.492H52.0776V18H45.8956L39.4496 8.078V14.392H40.5056V18H33.2896V14.392H34.3896V4.492H33.2896V0.883999H41.2316L47.0176 9.706V4.492H45.9616V0.883999ZM66.694 0.883999H73.91V4.492H72.81V18H66.628L60.182 8.078V14.392H61.238V18H54.022V14.392H55.122V4.492H54.022V0.883999H61.964L67.75 9.706V4.492H66.694V0.883999ZM74.7545 18V14.392H75.8545V4.492H74.7545V0.883999H83.1145V4.492H82.0145V14.392H83.1145V18H74.7545ZM90.8127 18.308C89.4047 18.308 88.0701 18.1907 86.8087 17.956C85.5621 17.7067 84.6014 17.428 83.9267 17.12V12.764H88.7667C88.7667 13.2187 88.8694 13.5487 89.0747 13.754C89.2801 13.9593 89.6541 14.062 90.1967 14.062C90.6514 14.062 90.9741 13.996 91.1647 13.864C91.3701 13.7173 91.4727 13.5047 91.4727 13.226C91.4727 12.9913 91.3774 12.7933 91.1867 12.632C90.9961 12.456 90.6661 12.28 90.1967 12.104L88.3047 11.444C86.6767 10.828 85.5034 10.102 84.7847 9.266C84.0807 8.43 83.7287 7.30067 83.7287 5.878C83.7287 4.14733 84.2934 2.83467 85.4227 1.94C86.5667 1.03067 88.4661 0.575999 91.1207 0.575999C92.3967 0.575999 93.5921 0.707999 94.7067 0.971999C95.8361 1.22133 96.7454 1.55867 97.4347 1.984V5.922H93.0347C93.0347 5.18867 92.5801 4.822 91.6707 4.822C91.2307 4.822 90.9154 4.88067 90.7247 4.998C90.5487 5.10067 90.4607 5.29133 90.4607 5.57C90.4607 5.81933 90.5634 6.01733 90.7687 6.164C90.9887 6.31067 91.3407 6.46467 91.8247 6.626L93.7387 7.286C95.2934 7.814 96.4227 8.50333 97.1267 9.354C97.8454 10.19 98.2047 11.29 98.2047 12.654C98.2047 14.5167 97.5741 15.9247 96.3127 16.878C95.0661 17.8313 93.2327 18.308 90.8127 18.308ZM112.233 18.308C110.825 18.308 109.49 18.1907 108.229 17.956C106.982 17.7067 106.021 17.428 105.347 17.12V12.764H110.187C110.187 13.2187 110.289 13.5487 110.495 13.754C110.7 13.9593 111.074 14.062 111.617 14.062C112.071 14.062 112.394 13.996 112.585 13.864C112.79 13.7173 112.893 13.5047 112.893 13.226C112.893 12.9913 112.797 12.7933 112.607 12.632C112.416 12.456 112.086 12.28 111.617 12.104L109.725 11.444C108.097 10.828 106.923 10.102 106.205 9.266C105.501 8.43 105.149 7.30067 105.149 5.878C105.149 4.14733 105.713 2.83467 106.843 1.94C107.987 1.03067 109.886 0.575999 112.541 0.575999C113.817 0.575999 115.012 0.707999 116.127 0.971999C117.256 1.22133 118.165 1.55867 118.855 1.984V5.922H114.455C114.455 5.18867 114 4.822 113.091 4.822C112.651 4.822 112.335 4.88067 112.145 4.998C111.969 5.10067 111.881 5.29133 111.881 5.57C111.881 5.81933 111.983 6.01733 112.189 6.164C112.409 6.31067 112.761 6.46467 113.245 6.626L115.159 7.286C116.713 7.814 117.843 8.50333 118.547 9.354C119.265 10.19 119.625 11.29 119.625 12.654C119.625 14.5167 118.994 15.9247 117.733 16.878C116.486 17.8313 114.653 18.308 112.233 18.308ZM137.265 19.716C134.156 19.716 131.662 19.6207 129.785 19.43C127.922 19.2393 126.316 18.8287 124.967 18.198C123.618 17.582 122.488 16.6507 121.579 15.404C120.596 13.9813 120.105 11.994 120.105 9.442C120.105 6.46467 120.838 4.24267 122.305 2.776C123.786 1.30933 125.854 0.575999 128.509 0.575999C131.149 0.575999 133.21 1.22867 134.691 2.534C136.172 3.82467 136.913 5.76067 136.913 8.342C136.913 9.45667 136.73 10.5053 136.363 11.488C136.011 12.456 135.395 13.3507 134.515 14.172L134.625 14.392H137.265V19.716ZM128.509 14.392C129.506 14.392 130.005 13.8493 130.005 12.764V6.12C130.005 5.03467 129.506 4.492 128.509 4.492C127.512 4.492 127.013 5.03467 127.013 6.12V12.764C127.013 13.8493 127.512 14.392 128.509 14.392ZM146.275 18.308C143.973 18.308 142.191 17.802 140.929 16.79C139.683 15.778 139.059 14.1353 139.059 11.862V4.492H137.959V0.883999H146.099V4.492H145.219V12.984C145.219 13.468 145.322 13.8273 145.527 14.062C145.747 14.282 146.07 14.392 146.495 14.392C146.921 14.392 147.236 14.282 147.441 14.062C147.661 13.8273 147.771 13.468 147.771 12.984V4.492H146.891V0.883999H154.437V4.492H153.337V11.862C153.337 14.1353 152.729 15.778 151.511 16.79C150.294 17.802 148.549 18.308 146.275 18.308ZM170.502 14.392H171.382V18H162.758V14.392H164.078L163.726 12.632H160.734L160.382 14.392H161.702V18H154.178V14.392H155.058L158.776 0.883999H166.784L170.502 14.392ZM161.218 10.3H163.242L162.34 5.922H162.12L161.218 10.3ZM172.079 14.392H173.179V4.514H172.079V0.883999H181.011C183.46 0.883999 185.403 1.55867 186.841 2.908C188.293 4.24267 189.019 6.42067 189.019 9.442C189.019 12.4633 188.293 14.6487 186.841 15.998C185.403 17.3327 183.46 18 181.011 18H172.079V14.392ZM180.615 14.392C181.113 14.392 181.487 14.26 181.737 13.996C181.986 13.732 182.111 13.3213 182.111 12.764V6.12C182.111 5.03467 181.612 4.492 180.615 4.492H179.339V14.392H180.615Z" fill="black"/>
</svg>
