<svg width="20" height="16" viewBox="0 0 20 16" fill="none" xmlns="http://www.w3.org/2000/svg">
<path d="M2 16C1.45 16 0.979333 15.8043 0.588 15.413C0.196 15.021 0 14.55 0 14V10C0.55 10 1.021 9.804 1.413 9.412C1.80433 9.02067 2 8.55 2 8C2 7.45 1.80433 6.979 1.413 6.587C1.021 6.19567 0.55 6 0 6V2C0 1.45 0.196 0.979333 0.588 0.588C0.979333 0.196 1.45 0 2 0H18C18.55 0 19.021 0.196 19.413 0.588C19.8043 0.979333 20 1.45 20 2V6C19.45 6 18.979 6.19567 18.587 6.587C18.1957 6.979 18 7.45 18 8C18 8.55 18.1957 9.02067 18.587 9.412C18.979 9.804 19.45 10 20 10V14C20 14.55 19.8043 15.021 19.413 15.413C19.021 15.8043 18.55 16 18 16H2ZM2 14H18V11.45C17.3833 11.0833 16.896 10.596 16.538 9.988C16.1793 9.37933 16 8.71667 16 8C16 7.28333 16.1793 6.62067 16.538 6.012C16.896 5.404 17.3833 4.91667 18 4.55V2H2V4.55C2.61667 4.91667 3.10433 5.404 3.463 6.012C3.821 6.62067 4 7.28333 4 8C4 8.71667 3.821 9.37933 3.463 9.988C3.10433 10.596 2.61667 11.0833 2 11.45V14ZM10 13C10.2833 13 10.521 12.904 10.713 12.712C10.9043 12.5207 11 12.2833 11 12C11 11.7167 10.9043 11.479 10.713 11.287C10.521 11.0957 10.2833 11 10 11C9.71667 11 9.47933 11.0957 9.288 11.287C9.096 11.479 9 11.7167 9 12C9 12.2833 9.096 12.5207 9.288 12.712C9.47933 12.904 9.71667 13 10 13ZM10 9C10.2833 9 10.521 8.904 10.713 8.712C10.9043 8.52067 11 8.28333 11 8C11 7.71667 10.9043 7.479 10.713 7.287C10.521 7.09567 10.2833 7 10 7C9.71667 7 9.47933 7.09567 9.288 7.287C9.096 7.479 9 7.71667 9 8C9 8.28333 9.096 8.52067 9.288 8.712C9.47933 8.904 9.71667 9 10 9ZM10 5C10.2833 5 10.521 4.904 10.713 4.712C10.9043 4.52067 11 4.28333 11 4C11 3.71667 10.9043 3.479 10.713 3.287C10.521 3.09567 10.2833 3 10 3C9.71667 3 9.47933 3.09567 9.288 3.287C9.096 3.479 9 3.71667 9 4C9 4.28333 9.096 4.52067 9.288 4.712C9.47933 4.904 9.71667 5 10 5Z" fill="black"/>
</svg>
